<svg width="13" height="13" viewBox="0 0 13 13" fill="none" xmlns="http://www.w3.org/2000/svg">
<g clip-path="url(#clip0_3631_14164)">
<path fill-rule="evenodd" clip-rule="evenodd" d="M8.14092 2.16346C7.21937 1.75284 6.18978 1.65111 5.2057 1.87345C4.22161 2.0958 3.33577 2.63029 2.68027 3.39722C2.02477 4.16415 1.63475 5.12242 1.56837 6.12912C1.50199 7.13583 1.7628 8.13702 2.31192 8.98338C2.86104 9.82974 3.66903 10.4759 4.6154 10.8256C5.56177 11.1752 6.5958 11.2095 7.56329 10.9235C8.53077 10.6374 9.37987 10.0463 9.98395 9.23824C10.588 8.43019 10.9147 7.44852 10.9153 6.43963V5.96168C10.9153 5.67458 11.148 5.44184 11.4351 5.44184C11.7222 5.44184 11.955 5.67458 11.955 5.96168V6.43993C11.9543 7.67301 11.555 8.87313 10.8167 9.86075C10.0783 10.8484 9.04055 11.5709 7.85807 11.9205C6.67559 12.2701 5.41177 12.2281 4.2551 11.8008C3.09842 11.3735 2.11088 10.5837 1.43973 9.54925C0.768592 8.51481 0.449817 7.29113 0.53095 6.06072C0.612083 4.8303 1.08878 3.65908 1.88994 2.72172C2.6911 1.78436 3.7738 1.13109 4.97657 0.859343C6.17934 0.587594 7.43773 0.711923 8.56407 1.21379C8.82631 1.33064 8.94418 1.63795 8.82733 1.9002C8.71048 2.16244 8.40316 2.2803 8.14092 2.16346Z" fill="#474D5C"/>
<path fill-rule="evenodd" clip-rule="evenodd" d="M11.8033 1.91477C12.0064 2.11768 12.0066 2.44682 11.8037 2.64993L6.60531 7.85349C6.50784 7.95106 6.37559 8.0059 6.23768 8.00593C6.09976 8.00597 5.96749 7.9512 5.86997 7.85368L4.31046 6.29417C4.10745 6.09116 4.10745 5.76201 4.31046 5.55901C4.51347 5.356 4.84261 5.356 5.04562 5.55901L6.23737 6.75075L11.0682 1.91514C11.2711 1.71203 11.6002 1.71186 11.8033 1.91477Z" fill="#474D5C"/>
</g>
<defs>
<clipPath id="clip0_3631_14164">
<rect width="12.4761" height="12.4761" fill="white" transform="translate(0 0.203125)"/>
</clipPath>
</defs>
</svg>
