<svg width="13" height="13" viewBox="0 0 13 13" fill="none" xmlns="http://www.w3.org/2000/svg">
<g clip-path="url(#clip0_3631_14167)">
<path d="M6.25128 9.5592C6.53838 9.5592 6.77112 9.32646 6.77112 9.03937C6.77112 8.75227 6.53838 8.51953 6.25128 8.51953C5.96418 8.51953 5.73145 8.75227 5.73145 9.03937C5.73145 9.32646 5.96418 9.5592 6.25128 9.5592Z" fill="#474D5C"/>
<path fill-rule="evenodd" clip-rule="evenodd" d="M6.43668 4.6519C6.18426 4.66298 6.04966 4.76454 6.00306 4.86354C5.88081 5.1233 5.57112 5.23477 5.31135 5.11252C5.05158 4.99026 4.94011 4.68057 5.06237 4.4208C5.33382 3.84404 5.9186 3.63396 6.3911 3.61322C6.8456 3.59328 7.41122 3.73805 7.72414 4.1461C7.96494 4.4601 8.10022 4.85815 8.04559 5.27667C7.9902 5.70104 7.74814 6.0817 7.35537 6.37065C6.83089 6.75649 6.83182 6.95336 6.83196 6.98202C6.83196 6.98244 6.83196 6.98282 6.83196 6.98317C6.83196 7.27027 6.59922 7.50301 6.31213 7.50301C6.02503 7.50301 5.79229 7.27027 5.79229 6.98317C5.79229 6.48583 6.08157 6.01704 6.73928 5.53318C6.94144 5.38446 7.0016 5.24216 7.01466 5.14209C7.02849 5.03618 6.99847 4.90831 6.89912 4.77877C6.89214 4.76966 6.85417 4.73174 6.7591 4.69757C6.66832 4.66495 6.55418 4.64674 6.43668 4.6519Z" fill="#474D5C"/>
<path d="M6.25043 12.1581C3.07943 12.1581 0.532227 9.61088 0.532227 6.43988C0.532227 3.26888 3.07943 0.72168 6.25043 0.72168C9.42143 0.72168 11.9686 3.26888 11.9686 6.43988C11.9686 9.61088 9.42143 12.1581 6.25043 12.1581ZM6.25043 1.76135C3.65125 1.76135 1.5719 3.8407 1.5719 6.43988C1.5719 9.03906 3.65125 11.1184 6.25043 11.1184C8.84961 11.1184 10.929 9.03906 10.929 6.43988C10.929 3.8407 8.84961 1.76135 6.25043 1.76135Z" fill="#474D5C"/>
</g>
<defs>
<clipPath id="clip0_3631_14167">
<rect width="12.4761" height="12.4761" fill="white" transform="translate(0.0136719 0.203125)"/>
</clipPath>
</defs>
</svg>
