<svg width="13" height="13" viewBox="0 0 13 13" fill="none" xmlns="http://www.w3.org/2000/svg">
<g clip-path="url(#clip0_3631_14170)">
<path fill-rule="evenodd" clip-rule="evenodd" d="M6.2641 1.5592C3.68022 1.5592 1.58557 3.65385 1.58557 6.23773C1.58557 8.82161 3.68022 10.9163 6.2641 10.9163C8.84798 10.9163 10.9426 8.82161 10.9426 6.23773C10.9426 3.65385 8.84798 1.5592 6.2641 1.5592ZM0.545898 6.23773C0.545898 3.07966 3.10602 0.519531 6.2641 0.519531C9.42218 0.519531 11.9823 3.07966 11.9823 6.23773C11.9823 9.39581 9.42218 11.9559 6.2641 11.9559C3.10602 11.9559 0.545898 9.39581 0.545898 6.23773Z" fill="#474D5C"/>
<path fill-rule="evenodd" clip-rule="evenodd" d="M6.2641 2.59888C6.5512 2.59888 6.78394 2.83162 6.78394 3.11871V5.91646L8.57592 6.81245C8.83271 6.94084 8.9368 7.2531 8.8084 7.50988C8.68001 7.76667 8.36776 7.87076 8.11097 7.74236L6.03162 6.70269C5.85551 6.61463 5.74426 6.43463 5.74426 6.23773V3.11871C5.74426 2.83162 5.977 2.59888 6.2641 2.59888Z" fill="#474D5C"/>
</g>
<defs>
<clipPath id="clip0_3631_14170">
<rect width="12.4761" height="12.4761" fill="white" transform="translate(0.0263672)"/>
</clipPath>
</defs>
</svg>
