<svg width="14" height="15" viewBox="0 0 14 15" fill="none" xmlns="http://www.w3.org/2000/svg">
<g clip-path="url(#clip0_3743_19103)">
<path fill-rule="evenodd" clip-rule="evenodd" d="M2.91699 7.69889C2.59483 7.69889 2.33366 7.96006 2.33366 8.28223V12.3656C2.33366 12.6877 2.59483 12.9489 2.91699 12.9489H11.0837C11.4058 12.9489 11.667 12.6877 11.667 12.3656V8.28223C11.667 7.96006 11.4058 7.69889 11.0837 7.69889H2.91699ZM1.16699 8.28223C1.16699 7.31573 1.95049 6.53223 2.91699 6.53223H11.0837C12.0502 6.53223 12.8337 7.31573 12.8337 8.28223V12.3656C12.8337 13.3321 12.0502 14.1156 11.0837 14.1156H2.91699C1.95049 14.1156 1.16699 13.3321 1.16699 12.3656V8.28223Z" fill="white"/>
<path fill-rule="evenodd" clip-rule="evenodd" d="M7 2.44889C6.38116 2.44889 5.78767 2.69473 5.35008 3.13231C4.9125 3.5699 4.66667 4.16339 4.66667 4.78223V7.11556C4.66667 7.43773 4.4055 7.69889 4.08333 7.69889C3.76117 7.69889 3.5 7.43773 3.5 7.11556V4.78223C3.5 3.85397 3.86875 2.96373 4.52513 2.30735C5.1815 1.65098 6.07174 1.28223 7 1.28223C7.92826 1.28223 8.8185 1.65098 9.47487 2.30735C10.1313 2.96373 10.5 3.85397 10.5 4.78223V7.11556C10.5 7.43773 10.2388 7.69889 9.91667 7.69889C9.5945 7.69889 9.33333 7.43773 9.33333 7.11556V4.78223C9.33333 4.16339 9.0875 3.5699 8.64992 3.13231C8.21233 2.69473 7.61884 2.44889 7 2.44889Z" fill="white"/>
</g>
<defs>
<clipPath id="clip0_3743_19103">
<rect width="14" height="14" fill="white" transform="translate(0 0.699219)"/>
</clipPath>
</defs>
</svg>
